<svg xmlns="http://www.w3.org/2000/svg" width="512" height="512" viewBox="0 0 512 512" role="img" aria-label="FloodMonitor">
  <defs>
    <linearGradient id="bg" x1="84" x2="428" y1="48" y2="470" gradientUnits="userSpaceOnUse">
      <stop stop-color="#38bdf8"/>
      <stop offset="1" stop-color="#2563eb"/>
    </linearGradient>
    <filter id="shadow" width="328" height="348" x="92" y="80" color-interpolation-filters="sRGB" filterUnits="userSpaceOnUse">
      <feDropShadow dx="0" dy="20" flood-color="#0f172a" flood-opacity=".14" stdDeviation="20"/>
    </filter>
  </defs>
  <rect width="512" height="512" fill="url(#bg)"/>
  <path d="M52 360c56 0 56-38 112-38s56 38 112 38 56-38 112-38 56 38 112 38v108H52z" fill="#dbeafe"/>
  <path d="M102 304c41 0 41-28 82-28s41 28 82 28 41-28 82-28 41 28 82 28" fill="none" stroke="#fff" stroke-linecap="round" stroke-width="34"/>
  <g filter="url(#shadow)">
    <path d="M256 112c-70 82-112 150-112 214 0 62 48 110 112 110s112-48 112-110c0-64-42-132-112-214z" fill="#f8fafc"/>
    <circle cx="256" cy="290" r="52" fill="#0ea5e9"/>
    <path d="M256 208v58" fill="none" stroke="#2563eb" stroke-linecap="round" stroke-width="28"/>
  </g>
</svg>
